<?xml version="1.0" encoding="UTF-8"?>
<svg id="Layer_2" data-name="Layer 2" xmlns="http://www.w3.org/2000/svg" viewBox="0 0 113.08 20.39">
  <defs>
    <style>
      .cls-1 {
        fill: #f8bd34;
        stroke-width: 0px;
      }
    </style>
  </defs>
  <g id="Layer_1-2" data-name="Layer 1">
    <g>
      <path class="cls-1" d="M11.8.71l2.6,5.27,5.82.85c1.04.15,1.46,1.44.71,2.17l-4.21,4.1,1,5.79c.18,1.05-.92,1.83-1.85,1.34l-5.21-2.74-5.21,2.74c-.92.49-2.03-.29-1.85-1.34l1-5.79L.39,9.01c-.76-.74-.34-2.02.71-2.17l5.82-.85L9.51.71c.47-.95,1.82-.94,2.29,0Z"/>
      <path class="cls-1" d="M34.74.71l2.6,5.27,5.82.85c1.04.15,1.46,1.44.71,2.17l-4.21,4.1,1,5.79c.18,1.05-.92,1.83-1.85,1.34l-5.21-2.74-5.21,2.74c-.92.49-2.03-.29-1.85-1.34l1-5.79-4.21-4.1c-.76-.74-.34-2.02.71-2.17l5.82-.85,2.6-5.27c.47-.95,1.82-.94,2.29,0Z"/>
      <path class="cls-1" d="M57.68.71l2.6,5.27,5.82.85c1.04.15,1.46,1.44.71,2.17l-4.21,4.1,1,5.79c.18,1.05-.92,1.83-1.85,1.34l-5.21-2.74-5.21,2.74c-.92.49-2.03-.29-1.85-1.34l1-5.79-4.21-4.1c-.76-.74-.34-2.02.71-2.17l5.82-.85,2.6-5.27c.47-.95,1.82-.94,2.29,0Z"/>
      <path class="cls-1" d="M80.62.71l2.6,5.27,5.82.85c1.04.15,1.46,1.44.7,2.17l-4.21,4.1,1,5.79c.18,1.05-.92,1.83-1.85,1.34l-5.21-2.74-5.21,2.74c-.92.49-2.03-.29-1.85-1.34l1-5.79-4.21-4.1c-.76-.74-.34-2.02.7-2.17l5.82-.85,2.6-5.27c.47-.95,1.82-.94,2.29,0Z"/>
      <path class="cls-1" d="M103.57.71l2.6,5.27,5.82.85c1.04.15,1.46,1.44.7,2.17l-4.21,4.1,1,5.79c.18,1.05-.92,1.83-1.85,1.34l-5.21-2.74-5.21,2.74c-.92.49-2.03-.29-1.85-1.34l1-5.79-4.21-4.1c-.76-.74-.34-2.02.7-2.17l5.82-.85,2.6-5.27c.47-.95,1.82-.94,2.29,0Z"/>
    </g>
  </g>
</svg>